<?xml version="1.0" encoding="UTF-8"?>
<svg version="1.1" viewBox="0 0 278.9 279.9" xml:space="preserve" xmlns="http://www.w3.org/2000/svg" xmlns:cc="http://creativecommons.org/ns#" xmlns:dc="http://purl.org/dc/elements/1.1/" xmlns:rdf="http://www.w3.org/1999/02/22-rdf-syntax-ns#"><metadata><rdf:RDF><cc:Work rdf:about=""><dc:format>image/svg+xml</dc:format><dc:type rdf:resource="http://purl.org/dc/dcmitype/StillImage"/></cc:Work></rdf:RDF></metadata>
<style type="text/css">
	.st0{fill:#387FF2;enable-background:new    ;}
	.st1{fill:#FFFFFF;}
</style>
<path class="st0" d="m249.6 279.9h-220.3c-16.2 0-29.3-13.1-29.3-29.3v-221.3c0-16.2 13.1-29.3 29.3-29.3h220.3c16.2 0 29.3 13.1 29.3 29.3v221.3c0 16.2-13.1 29.3-29.3 29.3z"/>
<path class="st1" d="m256.9 103.4-12.9 73.1c-2.1 12-13.6 21.8-25.6 21.8h-43l4.2-24.1h24.9c3.9 0 7.6-3.1 8.3-7l9.6-54.5c0.7-3.9-1.9-7-5.8-7h-30l-16.3 92.6h-32.9l20.6-116.7h81c12 0 20 9.7 17.9 21.8z"/>
<polygon class="st1" transform="translate(-158.2,-281)" points="287.4 433 223.5 433 227.8 408.9 291.7 408.9"/>
<path class="st1" d="m141.6 81.6-4.2 24.1h-62.9c-3.9 0-7.6 3.1-8.3 7l-9.6 54.5c-0.7 3.9 1.9 7 5.8 7h62.9l-4.2 24.1h-81c-12 0-20.1-9.8-18-21.8l12.9-73.1c2.1-12 13.6-21.8 25.6-21.8z"/>
</svg>
